<svg xmlns="http://www.w3.org/2000/svg" width="96" height="96" viewBox="0 0 96 96" shape-rendering="crispEdges"><rect width="96" height="96" fill="none"/><g transform="translate(0,0)"><rect x="5" y="18" width="8" height="18" fill="#10182b"/><rect x="6" y="19" width="7" height="16" fill="#4a2417"/><rect x="7" y="21" width="5" height="12" fill="#7d3b20"/><rect x="8" y="22" width="3" height="4" fill="#a85a2c"/><rect x="9" y="2" width="30" height="24" fill="#10182b"/><rect x="7" y="8" width="34" height="14" fill="#10182b"/><rect x="10" y="3" width="28" height="22" fill="#0a3f91"/><rect x="8" y="9" width="32" height="12" fill="#1268c4"/><rect x="13" y="4" width="17" height="4" fill="#2c97ee"/><rect x="11" y="7" width="26" height="5" fill="#f7f2de"/><rect x="9" y="11" width="6" height="11" fill="#f7f2de"/><rect x="33" y="11" width="6" height="11" fill="#f7f2de"/><rect x="12" y="20" width="24" height="5" fill="#f7f2de"/><rect x="13" y="9" width="4" height="3" fill="#b9d7ee"/><rect x="31" y="9" width="4" height="3" fill="#b9d7ee"/><rect x="12" y="18" width="4" height="4" fill="#b9d7ee"/><rect x="32" y="18" width="4" height="4" fill="#b9d7ee"/><rect x="15" y="11" width="18" height="10" fill="#10182b"/><rect x="19" y="14" width="3" height="4" fill="#f2a05b"/><rect x="26" y="14" width="3" height="4" fill="#f2a05b"/><rect x="14" y="18" width="20" height="7" fill="#10182b"/><rect x="16" y="18" width="17" height="6" fill="#d51d2f"/><rect x="20" y="19" width="11" height="2" fill="#f23b45"/><polygon points="21,24 29,24 25,29" fill="#d51d2f"/><rect x="11" y="24" width="26" height="15" fill="#10182b"/><rect x="13" y="25" width="22" height="13" fill="#0a3f91"/><rect x="16" y="26" width="16" height="10" fill="#1268c4"/><rect x="19" y="27" width="5" height="5" fill="#2c97ee"/><rect x="24" y="25" width="2" height="13" fill="#10182b"/><rect x="7" y="26" width="7" height="12" fill="#10182b"/><rect x="8" y="27" width="5" height="8" fill="#1268c4"/><rect x="8" y="34" width="6" height="5" fill="#5a2f1e"/><rect x="35" y="26" width="7" height="12" fill="#10182b"/><rect x="36" y="27" width="5" height="8" fill="#1268c4"/><rect x="35" y="34" width="6" height="5" fill="#5a2f1e"/><rect x="14" y="37" width="9" height="8" fill="#10182b"/><rect x="25" y="37" width="9" height="8" fill="#10182b"/><rect x="15" y="38" width="7" height="5" fill="#1c3152"/><rect x="26" y="38" width="7" height="5" fill="#1c3152"/><rect x="13" y="43" width="11" height="4" fill="#10182b"/><rect x="25" y="43" width="11" height="4" fill="#10182b"/><rect x="15" y="43" width="8" height="3" fill="#65331f"/><rect x="26" y="43" width="8" height="3" fill="#65331f"/><line x1="9" y1="40" x2="43" y2="9" stroke="#10182b" stroke-width="4" stroke-linecap="square"/><line x1="10" y1="39" x2="42" y2="10" stroke="#a85a2c" stroke-width="2" stroke-linecap="square"/><polygon points="41,8 47,5 44,12" fill="#61748b"/><polygon points="42,8 47,5 44,10" fill="#c8d9e8"/></g><g transform="translate(48,0)"><rect x="5" y="17" width="8" height="18" fill="#10182b"/><rect x="6" y="18" width="7" height="16" fill="#4a2417"/><rect x="7" y="20" width="5" height="12" fill="#7d3b20"/><rect x="8" y="21" width="3" height="4" fill="#a85a2c"/><rect x="9" y="1" width="30" height="24" fill="#10182b"/><rect x="7" y="7" width="34" height="14" fill="#10182b"/><rect x="10" y="2" width="28" height="22" fill="#0a3f91"/><rect x="8" y="8" width="32" height="12" fill="#1268c4"/><rect x="13" y="3" width="17" height="4" fill="#2c97ee"/><rect x="11" y="6" width="26" height="5" fill="#f7f2de"/><rect x="9" y="10" width="6" height="11" fill="#f7f2de"/><rect x="33" y="10" width="6" height="11" fill="#f7f2de"/><rect x="12" y="19" width="24" height="5" fill="#f7f2de"/><rect x="13" y="8" width="4" height="3" fill="#b9d7ee"/><rect x="31" y="8" width="4" height="3" fill="#b9d7ee"/><rect x="12" y="17" width="4" height="4" fill="#b9d7ee"/><rect x="32" y="17" width="4" height="4" fill="#b9d7ee"/><rect x="15" y="10" width="18" height="10" fill="#10182b"/><rect x="19" y="13" width="3" height="4" fill="#f2a05b"/><rect x="26" y="13" width="3" height="4" fill="#f2a05b"/><rect x="14" y="17" width="20" height="7" fill="#10182b"/><rect x="16" y="17" width="17" height="6" fill="#d51d2f"/><rect x="20" y="18" width="11" height="2" fill="#f23b45"/><polygon points="21,23 29,23 25,28" fill="#d51d2f"/><rect x="11" y="23" width="26" height="15" fill="#10182b"/><rect x="13" y="24" width="22" height="13" fill="#0a3f91"/><rect x="16" y="25" width="16" height="10" fill="#1268c4"/><rect x="19" y="26" width="5" height="5" fill="#2c97ee"/><rect x="24" y="24" width="2" height="13" fill="#10182b"/><rect x="7" y="25" width="7" height="12" fill="#10182b"/><rect x="8" y="26" width="5" height="8" fill="#1268c4"/><rect x="8" y="33" width="6" height="5" fill="#5a2f1e"/><rect x="35" y="25" width="7" height="12" fill="#10182b"/><rect x="36" y="26" width="5" height="8" fill="#1268c4"/><rect x="35" y="33" width="6" height="5" fill="#5a2f1e"/><rect x="12" y="36" width="10" height="8" fill="#10182b"/><rect x="26" y="37" width="8" height="7" fill="#10182b"/><rect x="13" y="37" width="8" height="5" fill="#1c3152"/><rect x="27" y="38" width="6" height="4" fill="#1c3152"/><rect x="9" y="42" width="14" height="4" fill="#10182b"/><rect x="26" y="42" width="10" height="4" fill="#10182b"/><rect x="11" y="42" width="11" height="3" fill="#65331f"/><rect x="27" y="42" width="8" height="3" fill="#65331f"/><line x1="9" y1="41" x2="43" y2="10" stroke="#10182b" stroke-width="4" stroke-linecap="square"/><line x1="10" y1="40" x2="42" y2="11" stroke="#a85a2c" stroke-width="2" stroke-linecap="square"/><polygon points="41,9 47,6 44,13" fill="#61748b"/><polygon points="42,9 47,6 44,11" fill="#c8d9e8"/></g><g transform="translate(0,48)"><rect x="5" y="18" width="8" height="18" fill="#10182b"/><rect x="6" y="19" width="7" height="16" fill="#4a2417"/><rect x="7" y="21" width="5" height="12" fill="#7d3b20"/><rect x="8" y="22" width="3" height="4" fill="#a85a2c"/><rect x="9" y="2" width="30" height="24" fill="#10182b"/><rect x="7" y="8" width="34" height="14" fill="#10182b"/><rect x="10" y="3" width="28" height="22" fill="#0a3f91"/><rect x="8" y="9" width="32" height="12" fill="#1268c4"/><rect x="13" y="4" width="17" height="4" fill="#2c97ee"/><rect x="11" y="7" width="26" height="5" fill="#f7f2de"/><rect x="9" y="11" width="6" height="11" fill="#f7f2de"/><rect x="33" y="11" width="6" height="11" fill="#f7f2de"/><rect x="12" y="20" width="24" height="5" fill="#f7f2de"/><rect x="13" y="9" width="4" height="3" fill="#b9d7ee"/><rect x="31" y="9" width="4" height="3" fill="#b9d7ee"/><rect x="12" y="18" width="4" height="4" fill="#b9d7ee"/><rect x="32" y="18" width="4" height="4" fill="#b9d7ee"/><rect x="15" y="11" width="18" height="10" fill="#10182b"/><rect x="19" y="14" width="3" height="4" fill="#f2a05b"/><rect x="26" y="14" width="3" height="4" fill="#f2a05b"/><rect x="14" y="18" width="20" height="7" fill="#10182b"/><rect x="16" y="18" width="17" height="6" fill="#d51d2f"/><rect x="20" y="19" width="11" height="2" fill="#f23b45"/><polygon points="21,24 29,24 25,29" fill="#d51d2f"/><rect x="11" y="24" width="26" height="15" fill="#10182b"/><rect x="13" y="25" width="22" height="13" fill="#0a3f91"/><rect x="16" y="26" width="16" height="10" fill="#1268c4"/><rect x="19" y="27" width="5" height="5" fill="#2c97ee"/><rect x="24" y="25" width="2" height="13" fill="#10182b"/><rect x="7" y="26" width="7" height="12" fill="#10182b"/><rect x="8" y="27" width="5" height="8" fill="#1268c4"/><rect x="8" y="34" width="6" height="5" fill="#5a2f1e"/><rect x="35" y="26" width="7" height="12" fill="#10182b"/><rect x="36" y="27" width="5" height="8" fill="#1268c4"/><rect x="35" y="34" width="6" height="5" fill="#5a2f1e"/><rect x="14" y="37" width="9" height="8" fill="#10182b"/><rect x="25" y="37" width="9" height="8" fill="#10182b"/><rect x="15" y="38" width="7" height="5" fill="#1c3152"/><rect x="26" y="38" width="7" height="5" fill="#1c3152"/><rect x="13" y="43" width="11" height="4" fill="#10182b"/><rect x="25" y="43" width="11" height="4" fill="#10182b"/><rect x="15" y="43" width="8" height="3" fill="#65331f"/><rect x="26" y="43" width="8" height="3" fill="#65331f"/><line x1="9" y1="39" x2="43" y2="8" stroke="#10182b" stroke-width="4" stroke-linecap="square"/><line x1="10" y1="38" x2="42" y2="9" stroke="#a85a2c" stroke-width="2" stroke-linecap="square"/><polygon points="41,7 47,4 44,11" fill="#61748b"/><polygon points="42,7 47,4 44,9" fill="#c8d9e8"/></g><g transform="translate(48,48)"><rect x="5" y="17" width="8" height="18" fill="#10182b"/><rect x="6" y="18" width="7" height="16" fill="#4a2417"/><rect x="7" y="20" width="5" height="12" fill="#7d3b20"/><rect x="8" y="21" width="3" height="4" fill="#a85a2c"/><rect x="9" y="1" width="30" height="24" fill="#10182b"/><rect x="7" y="7" width="34" height="14" fill="#10182b"/><rect x="10" y="2" width="28" height="22" fill="#0a3f91"/><rect x="8" y="8" width="32" height="12" fill="#1268c4"/><rect x="13" y="3" width="17" height="4" fill="#2c97ee"/><rect x="11" y="6" width="26" height="5" fill="#f7f2de"/><rect x="9" y="10" width="6" height="11" fill="#f7f2de"/><rect x="33" y="10" width="6" height="11" fill="#f7f2de"/><rect x="12" y="19" width="24" height="5" fill="#f7f2de"/><rect x="13" y="8" width="4" height="3" fill="#b9d7ee"/><rect x="31" y="8" width="4" height="3" fill="#b9d7ee"/><rect x="12" y="17" width="4" height="4" fill="#b9d7ee"/><rect x="32" y="17" width="4" height="4" fill="#b9d7ee"/><rect x="15" y="10" width="18" height="10" fill="#10182b"/><rect x="19" y="13" width="3" height="4" fill="#f2a05b"/><rect x="26" y="13" width="3" height="4" fill="#f2a05b"/><rect x="14" y="17" width="20" height="7" fill="#10182b"/><rect x="16" y="17" width="17" height="6" fill="#d51d2f"/><rect x="20" y="18" width="11" height="2" fill="#f23b45"/><polygon points="21,23 29,23 25,28" fill="#d51d2f"/><rect x="11" y="23" width="26" height="15" fill="#10182b"/><rect x="13" y="24" width="22" height="13" fill="#0a3f91"/><rect x="16" y="25" width="16" height="10" fill="#1268c4"/><rect x="19" y="26" width="5" height="5" fill="#2c97ee"/><rect x="24" y="24" width="2" height="13" fill="#10182b"/><rect x="7" y="25" width="7" height="12" fill="#10182b"/><rect x="8" y="26" width="5" height="8" fill="#1268c4"/><rect x="8" y="33" width="6" height="5" fill="#5a2f1e"/><rect x="35" y="25" width="7" height="12" fill="#10182b"/><rect x="36" y="26" width="5" height="8" fill="#1268c4"/><rect x="35" y="33" width="6" height="5" fill="#5a2f1e"/><rect x="14" y="37" width="8" height="7" fill="#10182b"/><rect x="26" y="36" width="10" height="8" fill="#10182b"/><rect x="15" y="38" width="6" height="4" fill="#1c3152"/><rect x="27" y="37" width="8" height="5" fill="#1c3152"/><rect x="12" y="42" width="10" height="4" fill="#10182b"/><rect x="25" y="42" width="14" height="4" fill="#10182b"/><rect x="13" y="42" width="8" height="3" fill="#65331f"/><rect x="26" y="42" width="11" height="3" fill="#65331f"/><line x1="9" y1="40" x2="43" y2="9" stroke="#10182b" stroke-width="4" stroke-linecap="square"/><line x1="10" y1="39" x2="42" y2="10" stroke="#a85a2c" stroke-width="2" stroke-linecap="square"/><polygon points="41,8 47,5 44,12" fill="#61748b"/><polygon points="42,8 47,5 44,10" fill="#c8d9e8"/></g></svg>